<svg xmlns="http://www.w3.org/2000/svg" xmlns:xlink="http://www.w3.org/1999/xlink" width="500" zoomAndPan="magnify" viewBox="0 0 375 149.999998" height="200" preserveAspectRatio="xMidYMid meet" version="1.0"><defs><g/><clipPath id="41107fd363"><path d="M 10.867188 57.613281 L 51 57.613281 L 51 103.683594 L 10.867188 103.683594 Z M 10.867188 57.613281 " clip-rule="nonzero"/></clipPath><clipPath id="af994f9d07"><path d="M 15.015625 62.789062 L 26 62.789062 L 26 75 L 15.015625 75 Z M 15.015625 62.789062 " clip-rule="nonzero"/></clipPath><clipPath id="751a93938f"><path d="M 24 67 L 30.699219 67 L 30.699219 74 L 24 74 Z M 24 67 " clip-rule="nonzero"/></clipPath><clipPath id="fef79c7f58"><path d="M 20 72 L 29 72 L 29 80.433594 L 20 80.433594 Z M 20 72 " clip-rule="nonzero"/></clipPath></defs><g clip-path="url(#41107fd363)"><path fill="#004aad" d="M 44.777344 87.039062 L 16.765625 87.039062 C 16.105469 87.039062 15.566406 86.5 15.566406 85.839844 C 15.566406 85.179688 16.105469 84.640625 16.765625 84.640625 L 44.777344 84.640625 C 45.4375 84.640625 45.972656 85.179688 45.972656 85.839844 C 45.972656 86.5 45.4375 87.039062 44.777344 87.039062 Z M 44.777344 95.652344 L 16.765625 95.652344 C 16.105469 95.652344 15.566406 95.117188 15.566406 94.453125 C 15.566406 93.792969 16.105469 93.257812 16.765625 93.257812 L 44.777344 93.257812 C 45.4375 93.257812 45.972656 93.792969 45.972656 94.453125 C 45.972656 95.117188 45.4375 95.652344 44.777344 95.652344 Z M 32.878906 76.152344 C 32.878906 73.792969 34.367188 71.785156 36.449219 70.996094 C 35.167969 70.207031 34.308594 68.804688 34.308594 67.191406 C 34.308594 64.714844 36.3125 62.710938 38.789062 62.710938 C 41.261719 62.710938 43.269531 64.714844 43.269531 67.191406 C 43.269531 68.804688 42.40625 70.207031 41.125 70.996094 C 43.210938 71.785156 44.699219 73.792969 44.699219 76.152344 L 44.699219 78.886719 L 32.878906 78.886719 Z M 45.683594 57.613281 L 15.859375 57.613281 C 13.113281 57.613281 10.886719 59.839844 10.886719 62.582031 L 10.886719 98.925781 C 10.886719 101.671875 13.113281 103.898438 15.859375 103.898438 L 45.683594 103.898438 C 48.429688 103.898438 50.65625 101.671875 50.65625 98.925781 L 50.65625 62.582031 C 50.65625 59.839844 48.429688 57.613281 45.683594 57.613281 " fill-opacity="1" fill-rule="nonzero"/></g><g clip-path="url(#af994f9d07)"><path fill="#ffffff" d="M 15.015625 68.484375 C 15.832031 68.496094 20.269531 68.828125 20.441406 74.15625 C 20.621094 68.828125 25.058594 68.496094 25.875 68.484375 C 25.058594 68.464844 20.625 68.128906 20.441406 62.800781 C 20.269531 68.128906 15.832031 68.464844 15.015625 68.484375 Z M 15.015625 68.484375 " fill-opacity="1" fill-rule="evenodd"/></g><g clip-path="url(#751a93938f)"><path fill="#ffffff" d="M 24.679688 70.359375 C 25.144531 70.367188 27.628906 70.550781 27.726562 73.542969 C 27.824219 70.550781 30.308594 70.367188 30.761719 70.359375 C 30.308594 70.347656 27.824219 70.164062 27.726562 67.183594 C 27.628906 70.164062 25.144531 70.347656 24.679688 70.359375 Z M 24.679688 70.359375 " fill-opacity="1" fill-rule="evenodd"/></g><g clip-path="url(#fef79c7f58)"><path fill="#ffffff" d="M 20.019531 76.460938 C 20.644531 76.472656 23.992188 76.71875 24.121094 80.746094 C 24.261719 76.71875 27.609375 76.472656 28.222656 76.460938 C 27.609375 76.4375 24.261719 76.191406 24.121094 72.167969 C 23.992188 76.191406 20.644531 76.4375 20.019531 76.460938 Z M 20.019531 76.460938 " fill-opacity="1" fill-rule="evenodd"/></g><g fill="#004aad" fill-opacity="1"><g transform="translate(56.447213, 91.720379)"><g><path d="M 3.515625 -27.390625 L 15.65625 -27.390625 C 17.113281 -27.390625 18.4375 -27.164062 19.625 -26.71875 C 20.8125 -26.28125 21.820312 -25.65625 22.65625 -24.84375 C 23.488281 -24.03125 24.125 -23.054688 24.5625 -21.921875 C 25.007812 -20.796875 25.234375 -19.550781 25.234375 -18.1875 C 25.234375 -16.625 24.988281 -15.320312 24.5 -14.28125 C 24.019531 -13.238281 23.484375 -12.414062 22.890625 -11.8125 C 22.210938 -11.113281 21.429688 -10.566406 20.546875 -10.171875 L 26.21875 0 L 19.765625 0 L 14.875 -9 L 9.390625 -9 L 9.390625 0 L 3.515625 0 Z M 15.453125 -14.46875 C 16.546875 -14.46875 17.4375 -14.8125 18.125 -15.5 C 18.820312 -16.195312 19.171875 -17.09375 19.171875 -18.1875 C 19.171875 -19.289062 18.820312 -20.1875 18.125 -20.875 C 17.4375 -21.5625 16.546875 -21.90625 15.453125 -21.90625 L 9.390625 -21.90625 L 9.390625 -14.46875 Z M 15.453125 -14.46875 "/></g></g></g><g fill="#004aad" fill-opacity="1"><g transform="translate(81.677485, 91.720379)"><g><path d="M 11.546875 0.390625 C 10.128906 0.390625 8.800781 0.128906 7.5625 -0.390625 C 6.332031 -0.910156 5.253906 -1.625 4.328125 -2.53125 C 3.398438 -3.445312 2.675781 -4.503906 2.15625 -5.703125 C 1.632812 -6.910156 1.375 -8.203125 1.375 -9.578125 C 1.375 -10.941406 1.632812 -12.226562 2.15625 -13.4375 C 2.675781 -14.65625 3.390625 -15.71875 4.296875 -16.625 C 5.210938 -17.539062 6.269531 -18.257812 7.46875 -18.78125 C 8.664062 -19.300781 9.957031 -19.5625 11.34375 -19.5625 C 12.675781 -19.5625 13.921875 -19.304688 15.078125 -18.796875 C 16.242188 -18.285156 17.253906 -17.597656 18.109375 -16.734375 C 18.972656 -15.878906 19.660156 -14.867188 20.171875 -13.703125 C 20.679688 -12.546875 20.9375 -11.304688 20.9375 -9.984375 C 20.9375 -9.609375 20.921875 -9.285156 20.890625 -9.015625 C 20.867188 -8.742188 20.84375 -8.503906 20.8125 -8.296875 C 20.789062 -8.035156 20.765625 -7.8125 20.734375 -7.625 L 6.84375 -7.625 C 7.132812 -6.738281 7.6875 -5.960938 8.5 -5.296875 C 9.320312 -4.628906 10.46875 -4.296875 11.9375 -4.296875 C 12.769531 -4.296875 13.5 -4.398438 14.125 -4.609375 C 14.75 -4.828125 15.285156 -5.078125 15.734375 -5.359375 C 16.222656 -5.671875 16.648438 -6.035156 17.015625 -6.453125 L 19.765625 -2.734375 C 19.179688 -2.160156 18.472656 -1.640625 17.640625 -1.171875 C 16.941406 -0.785156 16.082031 -0.425781 15.0625 -0.09375 C 14.039062 0.226562 12.867188 0.390625 11.546875 0.390625 Z M 15.453125 -11.546875 C 15.171875 -12.429688 14.65625 -13.207031 13.90625 -13.875 C 13.164062 -14.539062 12.25 -14.875 11.15625 -14.875 C 10.050781 -14.875 9.128906 -14.539062 8.390625 -13.875 C 7.648438 -13.207031 7.132812 -12.429688 6.84375 -11.546875 Z M 15.453125 -11.546875 "/></g></g></g><g fill="#004aad" fill-opacity="1"><g transform="translate(102.018128, 91.720379)"><g><path d="M 8.796875 0.390625 C 7.472656 0.390625 6.300781 0.207031 5.28125 -0.15625 C 4.257812 -0.519531 3.398438 -0.925781 2.703125 -1.375 C 1.867188 -1.863281 1.164062 -2.445312 0.59375 -3.125 L 3.71875 -6.453125 C 4.101562 -6.035156 4.5625 -5.671875 5.09375 -5.359375 C 5.53125 -5.078125 6.0625 -4.828125 6.6875 -4.609375 C 7.3125 -4.398438 8.015625 -4.296875 8.796875 -4.296875 C 9.691406 -4.296875 10.304688 -4.425781 10.640625 -4.6875 C 10.984375 -4.957031 11.15625 -5.285156 11.15625 -5.671875 C 11.15625 -6.035156 10.910156 -6.34375 10.421875 -6.59375 C 9.941406 -6.84375 9.335938 -7.082031 8.609375 -7.3125 C 7.878906 -7.550781 7.097656 -7.828125 6.265625 -8.140625 C 5.429688 -8.453125 4.644531 -8.84375 3.90625 -9.3125 C 3.175781 -9.78125 2.570312 -10.363281 2.09375 -11.0625 C 1.613281 -11.769531 1.375 -12.644531 1.375 -13.6875 C 1.375 -14.476562 1.539062 -15.222656 1.875 -15.921875 C 2.21875 -16.628906 2.707031 -17.253906 3.34375 -17.796875 C 3.976562 -18.347656 4.769531 -18.78125 5.71875 -19.09375 C 6.675781 -19.40625 7.769531 -19.5625 9 -19.5625 C 10.226562 -19.5625 11.300781 -19.40625 12.21875 -19.09375 C 13.144531 -18.78125 13.921875 -18.441406 14.546875 -18.078125 C 15.285156 -17.628906 15.914062 -17.144531 16.4375 -16.625 L 13.296875 -13.296875 C 12.984375 -13.585938 12.609375 -13.847656 12.171875 -14.078125 C 11.804688 -14.285156 11.351562 -14.46875 10.8125 -14.625 C 10.28125 -14.789062 9.675781 -14.875 9 -14.875 C 8.320312 -14.875 7.828125 -14.75 7.515625 -14.5 C 7.203125 -14.25 7.046875 -13.976562 7.046875 -13.6875 C 7.046875 -13.320312 7.285156 -13.015625 7.765625 -12.765625 C 8.242188 -12.523438 8.847656 -12.285156 9.578125 -12.046875 C 10.316406 -11.816406 11.101562 -11.546875 11.9375 -11.234375 C 12.769531 -10.921875 13.550781 -10.523438 14.28125 -10.046875 C 15.007812 -9.578125 15.613281 -8.988281 16.09375 -8.28125 C 16.582031 -7.582031 16.828125 -6.710938 16.828125 -5.671875 C 16.828125 -4.835938 16.65625 -4.054688 16.3125 -3.328125 C 15.976562 -2.597656 15.46875 -1.957031 14.78125 -1.40625 C 14.101562 -0.863281 13.269531 -0.425781 12.28125 -0.09375 C 11.289062 0.226562 10.128906 0.390625 8.796875 0.390625 Z M 8.796875 0.390625 "/></g></g></g><g fill="#004aad" fill-opacity="1"><g transform="translate(117.860286, 91.720379)"><g><path d="M 9.578125 0.390625 C 8.585938 0.390625 7.671875 0.203125 6.828125 -0.171875 C 5.984375 -0.554688 5.238281 -1.09375 4.59375 -1.78125 C 3.957031 -2.46875 3.457031 -3.304688 3.09375 -4.296875 C 2.726562 -5.296875 2.546875 -6.40625 2.546875 -7.625 L 2.546875 -19.171875 L 7.828125 -19.171875 L 7.828125 -8.40625 C 7.828125 -7.238281 8.140625 -6.328125 8.765625 -5.671875 C 9.390625 -5.015625 10.25 -4.6875 11.34375 -4.6875 C 12.519531 -4.6875 13.5 -5.082031 14.28125 -5.875 C 15.0625 -6.675781 15.453125 -7.71875 15.453125 -9 L 15.453125 -19.171875 L 20.734375 -19.171875 L 20.734375 0 L 15.453125 0 L 15.453125 -2.734375 L 15.265625 -2.734375 C 14.835938 -2.160156 14.351562 -1.640625 13.8125 -1.171875 C 13.34375 -0.785156 12.75 -0.425781 12.03125 -0.09375 C 11.3125 0.226562 10.492188 0.390625 9.578125 0.390625 Z M 9.578125 0.390625 "/></g></g></g><g fill="#004aad" fill-opacity="1"><g transform="translate(139.178869, 91.720379)"><g><path d="M 2.546875 -19.171875 L 7.828125 -19.171875 L 7.828125 -16.4375 L 8.015625 -16.4375 C 8.359375 -17.007812 8.773438 -17.53125 9.265625 -18 C 9.710938 -18.382812 10.257812 -18.738281 10.90625 -19.0625 C 11.5625 -19.394531 12.359375 -19.5625 13.296875 -19.5625 C 14.316406 -19.5625 15.191406 -19.382812 15.921875 -19.03125 C 16.648438 -18.675781 17.238281 -18.289062 17.6875 -17.875 C 18.207031 -17.40625 18.632812 -16.859375 18.96875 -16.234375 L 19.171875 -16.234375 C 19.617188 -16.859375 20.15625 -17.40625 20.78125 -17.875 C 21.300781 -18.289062 21.941406 -18.675781 22.703125 -19.03125 C 23.472656 -19.382812 24.382812 -19.5625 25.4375 -19.5625 C 26.375 -19.5625 27.242188 -19.382812 28.046875 -19.03125 C 28.859375 -18.675781 29.5625 -18.164062 30.15625 -17.5 C 30.757812 -16.84375 31.226562 -16.039062 31.5625 -15.09375 C 31.90625 -14.15625 32.078125 -13.101562 32.078125 -11.9375 L 32.078125 0 L 26.796875 0 L 26.796875 -11.15625 C 26.796875 -12.25 26.519531 -13.070312 25.96875 -13.625 C 25.425781 -14.1875 24.660156 -14.46875 23.671875 -14.46875 C 22.578125 -14.46875 21.679688 -14.109375 20.984375 -13.390625 C 20.296875 -12.679688 19.953125 -11.738281 19.953125 -10.5625 L 19.953125 0 L 14.671875 0 L 14.671875 -11.15625 C 14.671875 -12.25 14.394531 -13.070312 13.84375 -13.625 C 13.300781 -14.1875 12.535156 -14.46875 11.546875 -14.46875 C 10.453125 -14.46875 9.554688 -14.109375 8.859375 -13.390625 C 8.171875 -12.679688 7.828125 -11.738281 7.828125 -10.5625 L 7.828125 0 L 2.546875 0 Z M 2.546875 -19.171875 "/></g></g></g><g fill="#004aad" fill-opacity="1"><g transform="translate(171.841464, 91.720379)"><g><path d="M 11.546875 0.390625 C 10.128906 0.390625 8.800781 0.128906 7.5625 -0.390625 C 6.332031 -0.910156 5.253906 -1.625 4.328125 -2.53125 C 3.398438 -3.445312 2.675781 -4.503906 2.15625 -5.703125 C 1.632812 -6.910156 1.375 -8.203125 1.375 -9.578125 C 1.375 -10.941406 1.632812 -12.226562 2.15625 -13.4375 C 2.675781 -14.65625 3.390625 -15.71875 4.296875 -16.625 C 5.210938 -17.539062 6.269531 -18.257812 7.46875 -18.78125 C 8.664062 -19.300781 9.957031 -19.5625 11.34375 -19.5625 C 12.675781 -19.5625 13.921875 -19.304688 15.078125 -18.796875 C 16.242188 -18.285156 17.253906 -17.597656 18.109375 -16.734375 C 18.972656 -15.878906 19.660156 -14.867188 20.171875 -13.703125 C 20.679688 -12.546875 20.9375 -11.304688 20.9375 -9.984375 C 20.9375 -9.609375 20.921875 -9.285156 20.890625 -9.015625 C 20.867188 -8.742188 20.84375 -8.503906 20.8125 -8.296875 C 20.789062 -8.035156 20.765625 -7.8125 20.734375 -7.625 L 6.84375 -7.625 C 7.132812 -6.738281 7.6875 -5.960938 8.5 -5.296875 C 9.320312 -4.628906 10.46875 -4.296875 11.9375 -4.296875 C 12.769531 -4.296875 13.5 -4.398438 14.125 -4.609375 C 14.75 -4.828125 15.285156 -5.078125 15.734375 -5.359375 C 16.222656 -5.671875 16.648438 -6.035156 17.015625 -6.453125 L 19.765625 -2.734375 C 19.179688 -2.160156 18.472656 -1.640625 17.640625 -1.171875 C 16.941406 -0.785156 16.082031 -0.425781 15.0625 -0.09375 C 14.039062 0.226562 12.867188 0.390625 11.546875 0.390625 Z M 15.453125 -11.546875 C 15.171875 -12.429688 14.65625 -13.207031 13.90625 -13.875 C 13.164062 -14.539062 12.25 -14.875 11.15625 -14.875 C 10.050781 -14.875 9.128906 -14.539062 8.390625 -13.875 C 7.648438 -13.207031 7.132812 -12.429688 6.84375 -11.546875 Z M 15.453125 -11.546875 "/></g></g></g><g fill="#004aad" fill-opacity="1"><g transform="translate(192.182112, 91.720379)"><g/></g></g><g fill="#004aad" fill-opacity="1"><g transform="translate(198.440527, 91.720379)"><g><path d="M 16.625 0.59375 C 14.507812 0.59375 12.546875 0.210938 10.734375 -0.546875 C 8.921875 -1.304688 7.347656 -2.332031 6.015625 -3.625 C 4.691406 -4.914062 3.648438 -6.425781 2.890625 -8.15625 C 2.140625 -9.894531 1.765625 -11.738281 1.765625 -13.6875 C 1.765625 -15.644531 2.140625 -17.488281 2.890625 -19.21875 C 3.648438 -20.957031 4.691406 -22.472656 6.015625 -23.765625 C 7.347656 -25.054688 8.921875 -26.078125 10.734375 -26.828125 C 12.546875 -27.585938 14.507812 -27.96875 16.625 -27.96875 C 18.738281 -27.96875 20.703125 -27.585938 22.515625 -26.828125 C 24.328125 -26.078125 25.894531 -25.054688 27.21875 -23.765625 C 28.550781 -22.472656 29.597656 -20.957031 30.359375 -19.21875 C 31.117188 -17.488281 31.5 -15.644531 31.5 -13.6875 C 31.5 -11.738281 31.117188 -9.894531 30.359375 -8.15625 C 29.597656 -6.425781 28.550781 -4.914062 27.21875 -3.625 C 25.894531 -2.332031 24.328125 -1.304688 22.515625 -0.546875 C 20.703125 0.210938 18.738281 0.59375 16.625 0.59375 Z M 16.625 -4.890625 C 17.851562 -4.890625 19 -5.117188 20.0625 -5.578125 C 21.132812 -6.035156 22.066406 -6.660156 22.859375 -7.453125 C 23.660156 -8.242188 24.289062 -9.175781 24.75 -10.25 C 25.207031 -11.320312 25.4375 -12.46875 25.4375 -13.6875 C 25.4375 -14.914062 25.207031 -16.0625 24.75 -17.125 C 24.289062 -18.195312 23.660156 -19.128906 22.859375 -19.921875 C 22.066406 -20.722656 21.132812 -21.351562 20.0625 -21.8125 C 19 -22.269531 17.851562 -22.5 16.625 -22.5 C 15.40625 -22.5 14.257812 -22.269531 13.1875 -21.8125 C 12.113281 -21.351562 11.175781 -20.722656 10.375 -19.921875 C 9.582031 -19.128906 8.957031 -18.195312 8.5 -17.125 C 8.050781 -16.0625 7.828125 -14.914062 7.828125 -13.6875 C 7.828125 -12.46875 8.050781 -11.320312 8.5 -10.25 C 8.957031 -9.175781 9.582031 -8.242188 10.375 -7.453125 C 11.175781 -6.660156 12.113281 -6.035156 13.1875 -5.578125 C 14.257812 -5.117188 15.40625 -4.890625 16.625 -4.890625 Z M 16.625 -4.890625 "/></g></g></g><g fill="#004aad" fill-opacity="1"><g transform="translate(229.734007, 91.720379)"><g><path d="M 2.546875 -19.171875 L 7.828125 -19.171875 L 7.828125 -16.4375 L 8.015625 -16.4375 C 8.410156 -17.007812 8.90625 -17.53125 9.5 -18 C 10.03125 -18.382812 10.664062 -18.738281 11.40625 -19.0625 C 12.144531 -19.394531 13.035156 -19.5625 14.078125 -19.5625 C 15.203125 -19.5625 16.285156 -19.3125 17.328125 -18.8125 C 18.367188 -18.320312 19.285156 -17.640625 20.078125 -16.765625 C 20.878906 -15.890625 21.515625 -14.835938 21.984375 -13.609375 C 22.453125 -12.390625 22.6875 -11.046875 22.6875 -9.578125 C 22.6875 -8.117188 22.453125 -6.773438 21.984375 -5.546875 C 21.515625 -4.328125 20.878906 -3.273438 20.078125 -2.390625 C 19.285156 -1.503906 18.367188 -0.816406 17.328125 -0.328125 C 16.285156 0.148438 15.203125 0.390625 14.078125 0.390625 C 13.035156 0.390625 12.144531 0.226562 11.40625 -0.09375 C 10.664062 -0.425781 10.03125 -0.785156 9.5 -1.171875 C 8.90625 -1.640625 8.410156 -2.160156 8.015625 -2.734375 L 7.828125 -2.734375 L 7.828125 8.21875 L 2.546875 8.21875 Z M 12.515625 -4.5 C 13.191406 -4.5 13.832031 -4.628906 14.4375 -4.890625 C 15.039062 -5.148438 15.5625 -5.5 16 -5.9375 C 16.445312 -6.382812 16.789062 -6.921875 17.03125 -7.546875 C 17.28125 -8.171875 17.40625 -8.847656 17.40625 -9.578125 C 17.40625 -10.316406 17.28125 -11 17.03125 -11.625 C 16.789062 -12.25 16.445312 -12.78125 16 -13.21875 C 15.5625 -13.664062 15.039062 -14.019531 14.4375 -14.28125 C 13.832031 -14.539062 13.191406 -14.671875 12.515625 -14.671875 C 11.835938 -14.671875 11.195312 -14.539062 10.59375 -14.28125 C 10 -14.019531 9.476562 -13.664062 9.03125 -13.21875 C 8.59375 -12.78125 8.25 -12.25 8 -11.625 C 7.75 -11 7.625 -10.316406 7.625 -9.578125 C 7.625 -8.847656 7.75 -8.171875 8 -7.546875 C 8.25 -6.921875 8.59375 -6.382812 9.03125 -5.9375 C 9.476562 -5.5 10 -5.148438 10.59375 -4.890625 C 11.195312 -4.628906 11.835938 -4.5 12.515625 -4.5 Z M 12.515625 -4.5 "/></g></g></g><g fill="#004aad" fill-opacity="1"><g transform="translate(251.834936, 91.720379)"><g><path d="M 10.5625 0.390625 C 8.601562 0.390625 7.035156 -0.210938 5.859375 -1.421875 C 4.691406 -2.640625 4.109375 -4.382812 4.109375 -6.65625 L 4.109375 -13.890625 L 0.78125 -13.890625 L 0.78125 -18.78125 L 2.546875 -18.78125 C 3.972656 -18.78125 4.6875 -19.5625 4.6875 -21.125 L 4.6875 -24.65625 L 9.390625 -24.65625 L 9.390625 -18.78125 L 13.6875 -18.78125 L 13.6875 -13.890625 L 9.390625 -13.890625 L 9.390625 -7.4375 C 9.390625 -6.550781 9.617188 -5.867188 10.078125 -5.390625 C 10.535156 -4.921875 11.15625 -4.6875 11.9375 -4.6875 C 12.507812 -4.6875 13.015625 -4.753906 13.453125 -4.890625 C 13.691406 -4.941406 13.898438 -5.007812 14.078125 -5.09375 L 14.078125 -0.203125 C 13.765625 -0.0976562 13.425781 0.0078125 13.0625 0.125 C 12.75 0.195312 12.378906 0.257812 11.953125 0.3125 C 11.523438 0.363281 11.0625 0.390625 10.5625 0.390625 Z M 10.5625 0.390625 "/></g></g></g><g fill="#004aad" fill-opacity="1"><g transform="translate(265.525645, 91.720379)"><g><path d="M 2.546875 -19.171875 L 7.828125 -19.171875 L 7.828125 0 L 2.546875 0 Z M 5.171875 -21.71875 C 4.328125 -21.71875 3.613281 -22.007812 3.03125 -22.59375 C 2.445312 -23.175781 2.15625 -23.863281 2.15625 -24.65625 C 2.15625 -25.4375 2.453125 -26.117188 3.046875 -26.703125 C 3.648438 -27.285156 4.367188 -27.578125 5.203125 -27.578125 C 6.035156 -27.578125 6.742188 -27.285156 7.328125 -26.703125 C 7.921875 -26.117188 8.21875 -25.4375 8.21875 -24.65625 C 8.21875 -23.863281 7.914062 -23.175781 7.3125 -22.59375 C 6.71875 -22.007812 6.003906 -21.71875 5.171875 -21.71875 Z M 5.171875 -21.71875 "/></g></g></g><g fill="#004aad" fill-opacity="1"><g transform="translate(273.935521, 91.720379)"><g><path d="M 2.546875 -19.171875 L 7.828125 -19.171875 L 7.828125 -16.4375 L 8.015625 -16.4375 C 8.359375 -17.007812 8.773438 -17.53125 9.265625 -18 C 9.710938 -18.382812 10.257812 -18.738281 10.90625 -19.0625 C 11.5625 -19.394531 12.359375 -19.5625 13.296875 -19.5625 C 14.316406 -19.5625 15.191406 -19.382812 15.921875 -19.03125 C 16.648438 -18.675781 17.238281 -18.289062 17.6875 -17.875 C 18.207031 -17.40625 18.632812 -16.859375 18.96875 -16.234375 L 19.171875 -16.234375 C 19.617188 -16.859375 20.15625 -17.40625 20.78125 -17.875 C 21.300781 -18.289062 21.941406 -18.675781 22.703125 -19.03125 C 23.472656 -19.382812 24.382812 -19.5625 25.4375 -19.5625 C 26.375 -19.5625 27.242188 -19.382812 28.046875 -19.03125 C 28.859375 -18.675781 29.5625 -18.164062 30.15625 -17.5 C 30.757812 -16.84375 31.226562 -16.039062 31.5625 -15.09375 C 31.90625 -14.15625 32.078125 -13.101562 32.078125 -11.9375 L 32.078125 0 L 26.796875 0 L 26.796875 -11.15625 C 26.796875 -12.25 26.519531 -13.070312 25.96875 -13.625 C 25.425781 -14.1875 24.660156 -14.46875 23.671875 -14.46875 C 22.578125 -14.46875 21.679688 -14.109375 20.984375 -13.390625 C 20.296875 -12.679688 19.953125 -11.738281 19.953125 -10.5625 L 19.953125 0 L 14.671875 0 L 14.671875 -11.15625 C 14.671875 -12.25 14.394531 -13.070312 13.84375 -13.625 C 13.300781 -14.1875 12.535156 -14.46875 11.546875 -14.46875 C 10.453125 -14.46875 9.554688 -14.109375 8.859375 -13.390625 C 8.171875 -12.679688 7.828125 -11.738281 7.828125 -10.5625 L 7.828125 0 L 2.546875 0 Z M 2.546875 -19.171875 "/></g></g></g><g fill="#004aad" fill-opacity="1"><g transform="translate(306.598115, 91.720379)"><g><path d="M 2.546875 -19.171875 L 7.828125 -19.171875 L 7.828125 0 L 2.546875 0 Z M 5.171875 -21.71875 C 4.328125 -21.71875 3.613281 -22.007812 3.03125 -22.59375 C 2.445312 -23.175781 2.15625 -23.863281 2.15625 -24.65625 C 2.15625 -25.4375 2.453125 -26.117188 3.046875 -26.703125 C 3.648438 -27.285156 4.367188 -27.578125 5.203125 -27.578125 C 6.035156 -27.578125 6.742188 -27.285156 7.328125 -26.703125 C 7.921875 -26.117188 8.21875 -25.4375 8.21875 -24.65625 C 8.21875 -23.863281 7.914062 -23.175781 7.3125 -22.59375 C 6.71875 -22.007812 6.003906 -21.71875 5.171875 -21.71875 Z M 5.171875 -21.71875 "/></g></g></g><g fill="#004aad" fill-opacity="1"><g transform="translate(315.008006, 91.720379)"><g><path d="M 8.796875 0.390625 C 7.472656 0.390625 6.300781 0.207031 5.28125 -0.15625 C 4.257812 -0.519531 3.398438 -0.925781 2.703125 -1.375 C 1.867188 -1.863281 1.164062 -2.445312 0.59375 -3.125 L 3.71875 -6.453125 C 4.101562 -6.035156 4.5625 -5.671875 5.09375 -5.359375 C 5.53125 -5.078125 6.0625 -4.828125 6.6875 -4.609375 C 7.3125 -4.398438 8.015625 -4.296875 8.796875 -4.296875 C 9.691406 -4.296875 10.304688 -4.425781 10.640625 -4.6875 C 10.984375 -4.957031 11.15625 -5.285156 11.15625 -5.671875 C 11.15625 -6.035156 10.910156 -6.34375 10.421875 -6.59375 C 9.941406 -6.84375 9.335938 -7.082031 8.609375 -7.3125 C 7.878906 -7.550781 7.097656 -7.828125 6.265625 -8.140625 C 5.429688 -8.453125 4.644531 -8.84375 3.90625 -9.3125 C 3.175781 -9.78125 2.570312 -10.363281 2.09375 -11.0625 C 1.613281 -11.769531 1.375 -12.644531 1.375 -13.6875 C 1.375 -14.476562 1.539062 -15.222656 1.875 -15.921875 C 2.21875 -16.628906 2.707031 -17.253906 3.34375 -17.796875 C 3.976562 -18.347656 4.769531 -18.78125 5.71875 -19.09375 C 6.675781 -19.40625 7.769531 -19.5625 9 -19.5625 C 10.226562 -19.5625 11.300781 -19.40625 12.21875 -19.09375 C 13.144531 -18.78125 13.921875 -18.441406 14.546875 -18.078125 C 15.285156 -17.628906 15.914062 -17.144531 16.4375 -16.625 L 13.296875 -13.296875 C 12.984375 -13.585938 12.609375 -13.847656 12.171875 -14.078125 C 11.804688 -14.285156 11.351562 -14.46875 10.8125 -14.625 C 10.28125 -14.789062 9.675781 -14.875 9 -14.875 C 8.320312 -14.875 7.828125 -14.75 7.515625 -14.5 C 7.203125 -14.25 7.046875 -13.976562 7.046875 -13.6875 C 7.046875 -13.320312 7.285156 -13.015625 7.765625 -12.765625 C 8.242188 -12.523438 8.847656 -12.285156 9.578125 -12.046875 C 10.316406 -11.816406 11.101562 -11.546875 11.9375 -11.234375 C 12.769531 -10.921875 13.550781 -10.523438 14.28125 -10.046875 C 15.007812 -9.578125 15.613281 -8.988281 16.09375 -8.28125 C 16.582031 -7.582031 16.828125 -6.710938 16.828125 -5.671875 C 16.828125 -4.835938 16.65625 -4.054688 16.3125 -3.328125 C 15.976562 -2.597656 15.46875 -1.957031 14.78125 -1.40625 C 14.101562 -0.863281 13.269531 -0.425781 12.28125 -0.09375 C 11.289062 0.226562 10.128906 0.390625 8.796875 0.390625 Z M 8.796875 0.390625 "/></g></g></g><g fill="#004aad" fill-opacity="1"><g transform="translate(330.850161, 91.720379)"><g><path d="M 11.546875 0.390625 C 10.128906 0.390625 8.800781 0.128906 7.5625 -0.390625 C 6.332031 -0.910156 5.253906 -1.625 4.328125 -2.53125 C 3.398438 -3.445312 2.675781 -4.503906 2.15625 -5.703125 C 1.632812 -6.910156 1.375 -8.203125 1.375 -9.578125 C 1.375 -10.941406 1.632812 -12.226562 2.15625 -13.4375 C 2.675781 -14.65625 3.390625 -15.71875 4.296875 -16.625 C 5.210938 -17.539062 6.269531 -18.257812 7.46875 -18.78125 C 8.664062 -19.300781 9.957031 -19.5625 11.34375 -19.5625 C 12.675781 -19.5625 13.921875 -19.304688 15.078125 -18.796875 C 16.242188 -18.285156 17.253906 -17.597656 18.109375 -16.734375 C 18.972656 -15.878906 19.660156 -14.867188 20.171875 -13.703125 C 20.679688 -12.546875 20.9375 -11.304688 20.9375 -9.984375 C 20.9375 -9.609375 20.921875 -9.285156 20.890625 -9.015625 C 20.867188 -8.742188 20.84375 -8.503906 20.8125 -8.296875 C 20.789062 -8.035156 20.765625 -7.8125 20.734375 -7.625 L 6.84375 -7.625 C 7.132812 -6.738281 7.6875 -5.960938 8.5 -5.296875 C 9.320312 -4.628906 10.46875 -4.296875 11.9375 -4.296875 C 12.769531 -4.296875 13.5 -4.398438 14.125 -4.609375 C 14.75 -4.828125 15.285156 -5.078125 15.734375 -5.359375 C 16.222656 -5.671875 16.648438 -6.035156 17.015625 -6.453125 L 19.765625 -2.734375 C 19.179688 -2.160156 18.472656 -1.640625 17.640625 -1.171875 C 16.941406 -0.785156 16.082031 -0.425781 15.0625 -0.09375 C 14.039062 0.226562 12.867188 0.390625 11.546875 0.390625 Z M 15.453125 -11.546875 C 15.171875 -12.429688 14.65625 -13.207031 13.90625 -13.875 C 13.164062 -14.539062 12.25 -14.875 11.15625 -14.875 C 10.050781 -14.875 9.128906 -14.539062 8.390625 -13.875 C 7.648438 -13.207031 7.132812 -12.429688 6.84375 -11.546875 Z M 15.453125 -11.546875 "/></g></g></g><g fill="#004aad" fill-opacity="1"><g transform="translate(351.190817, 91.720379)"><g><path d="M 2.546875 -19.171875 L 7.828125 -19.171875 L 7.828125 -16.4375 L 8.015625 -16.4375 C 8.429688 -17.007812 8.914062 -17.53125 9.46875 -18 C 9.9375 -18.382812 10.519531 -18.738281 11.21875 -19.0625 C 11.925781 -19.394531 12.75 -19.5625 13.6875 -19.5625 L 14.078125 -19.5625 L 14.078125 -13.890625 C 13.953125 -13.910156 13.8125 -13.9375 13.65625 -13.96875 C 13.5 -13.988281 13.304688 -14.007812 13.078125 -14.03125 C 12.859375 -14.0625 12.609375 -14.078125 12.328125 -14.078125 C 11.046875 -14.078125 9.972656 -13.617188 9.109375 -12.703125 C 8.253906 -11.796875 7.828125 -10.5625 7.828125 -9 L 7.828125 0 L 2.546875 0 Z M 2.546875 -19.171875 "/></g></g></g></svg>